<?xml version="1.0" standalone="no"?>
<!DOCTYPE svg PUBLIC "-//W3C//DTD SVG 20010904//EN"
 "http://www.w3.org/TR/2001/REC-SVG-20010904/DTD/svg10.dtd">
<svg version="1.0" xmlns="http://www.w3.org/2000/svg"
 width="500.000000pt" height="500.000000pt" viewBox="0 0 500.000000 500.000000"
 preserveAspectRatio="xMidYMid meet">
<metadata>
Created by potrace 1.15, written by Peter Selinger 2001-2017
</metadata>
<g transform="translate(0.000000,500.000000) scale(0.100000,-0.100000)"
fill="#000000" stroke="none">
<path d="M2390 4609 c-58 -34 -117 -70 -132 -80 -15 -10 -30 -19 -33 -19 -3 0
-30 -16 -60 -34 -30 -19 -71 -44 -92 -56 -21 -11 -56 -32 -78 -45 -22 -14 -71
-43 -110 -65 -38 -23 -153 -91 -255 -152 -102 -61 -225 -134 -273 -162 -49
-28 -101 -59 -115 -68 -15 -10 -34 -21 -42 -25 -14 -6 -93 -53 -136 -81 -10
-6 -29 -16 -41 -22 -13 -5 -23 -14 -23 -20 0 -5 -7 -10 -15 -10 -9 0 -33 -11
-55 -25 -22 -14 -44 -25 -50 -25 -5 0 -10 -4 -10 -9 0 -5 -10 -13 -22 -17 -33
-10 -128 -114 -158 -171 -14 -26 -28 -50 -32 -53 -24 -18 -28 -145 -28 -978
l0 -884 26 -66 c29 -74 69 -130 129 -183 45 -39 387 -247 545 -331 36 -19 103
-60 150 -90 47 -30 117 -73 155 -95 114 -65 368 -214 395 -233 14 -9 79 -47
145 -85 66 -37 143 -82 170 -100 28 -18 75 -46 106 -63 49 -27 59 -29 69 -17
7 8 16 15 21 15 4 0 92 51 194 113 208 125 269 160 305 177 14 6 32 17 40 25
8 7 42 28 75 46 33 17 67 38 75 44 8 7 35 24 60 38 25 13 119 68 210 122 91
54 223 132 294 174 70 42 140 84 155 93 14 10 33 21 41 25 8 4 52 29 98 55
153 90 260 226 276 350 12 90 16 1703 5 1763 -15 81 -68 181 -126 237 -38 38
-301 208 -320 208 -2 0 -24 14 -48 30 -24 17 -46 30 -49 30 -4 0 -41 22 -84
48 -42 27 -95 57 -117 67 -22 11 -42 22 -45 25 -7 10 -88 57 -130 76 -19 9
-37 19 -40 23 -5 7 -289 179 -355 215 -16 9 -43 25 -60 36 -16 11 -37 23 -45
27 -8 5 -67 39 -130 77 -63 38 -131 78 -150 89 -19 11 -48 28 -65 38 -37 23
-103 59 -107 59 -2 0 -51 -27 -108 -61z m148 -28 c15 -10 137 -84 272 -164
1127 -665 1308 -773 1342 -803 50 -44 94 -102 127 -171 l31 -62 0 -872 0 -873
-41 -83 c-59 -123 -118 -176 -340 -307 -101 -60 -281 -166 -399 -236 -118 -70
-305 -181 -415 -245 -370 -218 -480 -284 -540 -322 -68 -43 -85 -49 -94 -35
-6 10 -326 201 -1136 679 -93 55 -235 138 -314 184 -183 107 -248 168 -305
288 l-41 86 0 845 0 845 28 69 c34 83 62 125 128 193 40 41 182 129 707 439
895 529 927 547 930 556 6 14 32 9 60 -11z"/>
<path d="M2315 4364 c-99 -59 -256 -152 -350 -207 -93 -55 -186 -110 -205
-122 -19 -12 -100 -60 -179 -106 -78 -46 -198 -116 -265 -156 -66 -39 -166
-98 -221 -129 -120 -69 -201 -144 -244 -224 -62 -117 -61 -97 -61 -933 0 -733
1 -764 20 -821 47 -139 102 -197 300 -314 195 -115 720 -426 795 -471 33 -20
72 -43 86 -51 54 -31 396 -233 451 -266 l56 -34 139 81 c76 45 235 139 353
209 118 70 294 174 390 231 96 57 183 108 192 114 9 5 43 25 75 44 374 217
420 250 487 349 16 23 39 74 52 114 l24 72 0 762 c0 729 -1 765 -20 825 -40
132 -107 205 -279 307 -64 38 -228 135 -366 216 -454 268 -540 319 -585 346
-128 78 -440 261 -452 265 -8 3 -95 -42 -193 -101z m225 -170 c0 -4 -29 -34
-65 -66 -85 -78 -117 -133 -117 -199 0 -72 34 -111 155 -175 124 -67 182 -109
260 -194 103 -111 155 -242 144 -364 -9 -118 -68 -240 -167 -349 l-55 -60 -54
94 c-76 134 -138 214 -245 316 -126 121 -257 206 -415 271 l-53 22 7 72 c21
230 139 441 300 538 98 58 305 122 305 94z m1490 -782 c70 -139 80 -180 80
-314 0 -107 -3 -125 -26 -174 -14 -29 -48 -78 -75 -108 l-49 -54 15 -64 c26
-111 16 -347 -16 -383 -5 -5 -9 -16 -9 -25 0 -23 -74 -136 -118 -180 -21 -20
-65 -55 -100 -78 -72 -49 -113 -116 -117 -192 -3 -64 -11 -85 -63 -165 -60
-93 -210 -239 -301 -293 -86 -51 -193 -94 -276 -113 -65 -15 -348 -19 -362 -6
-4 5 1 23 11 40 148 251 220 483 215 692 -3 119 -2 120 94 76 104 -46 160
-113 193 -228 4 -16 81 6 123 36 36 26 48 46 56 92 6 39 50 83 73 74 36 -14
126 90 120 140 -3 23 3 28 36 40 60 21 73 38 58 77 -25 67 -81 146 -164 233
-84 87 -87 93 -97 153 -22 136 -115 263 -238 324 -35 17 -63 36 -63 41 0 21
127 135 178 161 122 62 242 56 353 -15 142 -92 282 -70 346 54 24 47 27 65 29
172 1 66 3 122 3 125 2 14 54 -65 91 -138z m-2753 39 c-24 -147 39 -262 162
-293 38 -10 43 -8 88 25 103 75 201 107 325 107 226 0 430 -141 626 -433 60
-89 152 -255 152 -274 0 -9 -30 2 -92 36 -121 65 -225 104 -378 143 -114 29
-139 32 -285 32 -135 0 -173 -3 -245 -23 -85 -22 -243 -91 -255 -111 -13 -21
-50 -8 -88 32 -145 153 -201 369 -147 566 30 108 123 284 140 266 4 -5 3 -38
-3 -73z m1780 -600 c65 -42 121 -102 129 -141 3 -14 22 -40 42 -58 35 -31 36
-33 19 -47 -24 -18 -89 -28 -125 -20 -61 13 -102 83 -102 175 0 36 -7 56 -31
88 -27 38 -29 42 -11 42 10 0 46 -17 79 -39z m-951 -240 c158 -40 349 -129
526 -243 221 -143 247 -167 171 -154 -21 4 -133 9 -248 12 -167 5 -232 3 -315
-10 -335 -53 -541 -174 -640 -380 -47 -98 -43 -96 -159 -71 -333 70 -535 279
-558 576 -6 82 3 189 17 189 5 0 16 -26 25 -57 35 -123 111 -217 193 -241 51
-16 68 -15 130 3 49 15 53 19 88 86 41 78 131 176 208 226 52 35 135 69 201
83 67 15 271 4 361 -19z m592 -610 c7 -243 -82 -474 -248 -642 -73 -74 -100
-93 -190 -138 -61 -30 -147 -62 -205 -77 -89 -23 -113 -25 -217 -20 -121 6
-240 35 -317 78 -100 56 -204 139 -184 145 6 2 38 -3 71 -11 79 -21 148 -20
198 3 52 24 74 55 74 106 1 112 55 252 138 353 74 91 219 180 371 228 133 42
331 73 451 70 l55 -1 3 -94z"/>
</g>
</svg>
