<!DOCTYPE svg PUBLIC "-//W3C//DTD SVG 20010904//EN" "http://www.w3.org/TR/2001/REC-SVG-20010904/DTD/svg10.dtd">
<svg version="1.0" xmlns="http://www.w3.org/2000/svg" width="500px" height="500px" viewBox="0 0 5000 5000" preserveAspectRatio="xMidYMid meet">
<g id="layer101" fill="#000000" stroke="none">
 <path d="M1220 3908 c-381 -63 -601 -163 -781 -356 -90 -97 -164 -226 -184 -324 -4 -18 -14 -44 -23 -58 -22 -35 -22 -254 1 -296 8 -16 25 -66 36 -110 23 -90 96 -264 129 -312 12 -16 22 -33 22 -37 0 -3 19 -34 42 -68 144 -212 399 -457 652 -627 344 -230 788 -405 1191 -470 39 -6 91 -16 116 -21 45 -10 99 -4 99 11 0 12 -36 40 -53 40 -9 0 -26 4 -39 9 -13 5 -61 24 -108 42 -323 125 -628 327 -871 576 -126 129 -168 180 -242 294 -139 213 -206 444 -178 611 34 202 114 340 266 464 46 37 149 104 160 104 3 0 24 9 48 19 72 33 198 69 313 90 78 14 430 14 508 0 173 -30 206 -37 276 -59 144 -44 176 -55 185 -62 5 -4 15 -8 22 -8 22 0 214 -91 342 -162 221 -124 443 -329 586 -543 70 -104 94 -62 34 57 -75 149 -175 282 -325 431 -122 123 -206 192 -354 291 -103 69 -360 206 -465 248 -189 75 -322 120 -440 147 -27 7 -66 16 -85 21 -75 19 -189 38 -361 59 -101 13 -441 12 -519 -1z"/>
 <path d="M2600 3902 c0 -5 44 -26 98 -47 376 -147 758 -413 994 -694 292 -346 389 -677 286 -966 -179 -499 -893 -702 -1634 -464 -424 136 -803 390 -1022 686 -25 35 -47 61 -49 59 -3 -2 8 -28 23 -58 103 -204 347 -465 599 -640 484 -337 1170 -540 1740 -514 385 17 686 125 894 322 277 261 316 632 109 1049 -237 476 -815 926 -1458 1135 -203 66 -292 89 -450 115 -52 9 -103 18 -112 21 -10 3 -18 1 -18 -4z m326 -91 c16 -5 49 -14 74 -21 716 -199 1339 -651 1599 -1159 125 -246 166 -462 122 -646 -65 -268 -249 -461 -556 -583 -346 -138 -790 -145 -1285 -22 -500 124 -981 382 -1255 671 l-50 52 50 -40 c167 -136 449 -282 699 -362 504 -161 1049 -125 1372 91 186 124 307 301 345 506 16 85 6 257 -21 357 -105 391 -524 840 -1033 1106 -108 56 -123 69 -61 50z"/>
 </g>

</svg>