<?xml version="1.0" standalone="no"?>
<!DOCTYPE svg PUBLIC "-//W3C//DTD SVG 20010904//EN"
 "http://www.w3.org/TR/2001/REC-SVG-20010904/DTD/svg10.dtd">
<svg version="1.0" xmlns="http://www.w3.org/2000/svg"
 width="500.000000pt" height="500.000000pt" viewBox="0 0 500.000000 500.000000"
 preserveAspectRatio="xMidYMid meet">
<metadata>
Created by potrace 1.15, written by Peter Selinger 2001-2017
</metadata>
<g transform="translate(0.000000,500.000000) scale(0.100000,-0.100000)"
fill="#000000" stroke="none">
<path d="M2055 4061 c-11 -4 -68 -11 -127 -15 -100 -6 -367 -48 -387 -61 -5
-3 -52 -16 -103 -29 -51 -13 -113 -33 -138 -44 -25 -11 -61 -25 -80 -32 -37
-14 -238 -110 -255 -123 -5 -4 -39 -26 -75 -48 -36 -23 -93 -66 -127 -95 -33
-30 -64 -54 -69 -54 -9 0 -104 -99 -104 -109 0 -5 -8 -15 -17 -22 -38 -32
-126 -165 -172 -261 -50 -104 -80 -214 -102 -378 -14 -98 -4 -181 48 -400 18
-80 120 -292 181 -380 85 -122 264 -325 313 -355 9 -5 47 -36 85 -69 58 -49
154 -119 223 -161 9 -5 38 -24 66 -41 116 -72 340 -178 465 -220 41 -14 89
-32 105 -39 17 -7 80 -25 140 -40 61 -14 119 -30 130 -35 33 -16 234 -48 371
-60 71 -6 145 -16 164 -21 36 -11 385 -6 475 6 28 3 104 13 170 21 150 18 267
41 303 60 15 7 34 14 41 14 25 0 185 51 205 66 11 8 27 14 34 14 18 0 221 102
276 138 22 15 54 34 70 42 15 8 74 53 130 101 217 185 345 381 413 634 24 85
24 403 1 495 -46 181 -172 439 -258 525 -11 12 -20 25 -20 31 0 27 -322 343
-370 363 -8 3 -50 32 -92 63 -42 32 -96 68 -120 81 -24 13 -59 33 -78 45 -54
34 -276 142 -292 142 -7 0 -23 6 -34 14 -11 8 -87 37 -169 65 -273 92 -478
135 -779 163 -151 13 -416 19 -441 9z m419 -110 c17 -6 94 -17 171 -26 158
-19 292 -42 317 -55 9 -5 59 -20 112 -34 97 -26 115 -32 246 -83 102 -40 300
-134 300 -144 0 -4 13 -11 28 -17 31 -11 161 -95 260 -168 138 -103 311 -284
389 -408 56 -88 117 -200 131 -236 30 -84 66 -232 75 -313 23 -195 -55 -470
-179 -633 -41 -54 -122 -150 -139 -165 -97 -86 -264 -209 -283 -209 -5 0 -27
-12 -48 -26 -64 -44 -249 -118 -397 -160 -201 -57 -333 -75 -604 -81 -254 -6
-377 1 -573 33 -52 8 -104 19 -115 23 -11 5 -81 23 -155 41 -74 18 -139 36
-145 40 -5 4 -46 19 -90 34 -44 15 -102 37 -130 50 -162 75 -277 135 -347 184
-26 17 -49 32 -52 32 -13 0 -133 93 -226 175 -184 161 -326 349 -407 538 -69
160 -95 320 -81 497 6 84 33 215 48 235 4 6 22 43 39 83 95 217 334 446 601
573 36 17 88 42 115 55 123 58 350 117 552 143 79 10 146 21 150 25 10 10 403
7 437 -3z"/>
<path d="M2085 3909 c-239 -30 -337 -49 -342 -65 -2 -5 26 -42 62 -81 36 -39
65 -75 65 -79 0 -4 18 -22 40 -41 22 -19 40 -40 40 -46 0 -6 15 -25 33 -42 17
-17 66 -71 107 -119 70 -81 77 -87 105 -81 17 3 62 8 100 11 39 3 80 10 92 16
12 6 34 7 50 3 15 -3 69 -11 118 -15 88 -9 140 -5 160 10 6 5 55 20 110 35 55
15 114 33 130 40 17 7 66 23 110 35 44 12 123 35 175 52 240 76 240 76 118
137 -46 22 -89 41 -95 41 -6 0 -33 11 -60 24 -26 13 -84 34 -128 46 -44 12
-94 28 -111 35 -52 22 -239 56 -469 85 -84 10 -326 10 -410 -1z"/>
<path d="M1491 3784 c-25 -8 -65 -24 -90 -37 -25 -13 -58 -27 -72 -30 -14 -4
-41 -17 -60 -30 -19 -13 -54 -34 -79 -47 -95 -52 -265 -206 -316 -285 -10 -16
-21 -32 -24 -35 -21 -17 -91 -170 -109 -236 -12 -43 -27 -93 -32 -111 -15 -50
-22 -223 -11 -278 20 -96 43 -168 81 -249 36 -76 115 -202 148 -235 8 -8 32
-37 52 -65 21 -28 58 -68 82 -89 24 -20 60 -51 79 -67 19 -17 50 -44 68 -60
19 -17 36 -30 39 -30 4 0 29 -18 57 -39 28 -21 76 -53 106 -71 30 -18 57 -35
60 -39 7 -8 92 -54 170 -91 36 -17 83 -39 105 -49 52 -25 145 -61 157 -61 5 0
29 -9 53 -20 24 -11 90 -31 147 -45 57 -14 117 -30 134 -35 144 -46 666 -61
912 -27 68 10 131 22 140 27 10 4 53 16 97 25 116 23 186 45 191 59 3 7 -4 24
-15 37 -53 63 -445 508 -474 539 -19 19 -37 43 -40 52 -4 10 -20 26 -38 37
-26 16 -36 17 -63 8 -43 -16 -418 -16 -471 0 -22 7 -74 19 -115 29 -41 9 -106
25 -145 36 -65 19 -68 21 -45 31 14 6 43 19 65 28 22 9 78 29 125 44 47 15 99
33 115 41 17 7 77 28 135 47 63 20 106 39 108 48 2 12 -169 214 -263 310 -19
19 -35 40 -35 45 0 6 -19 29 -42 51 -24 23 -63 66 -88 97 -37 45 -49 54 -70
50 -27 -5 -204 -59 -345 -106 -112 -38 -196 -60 -202 -54 -3 3 0 29 6 58 13
59 112 218 136 218 8 0 22 11 31 25 9 14 20 25 24 25 17 0 130 74 130 85 0 7
-38 56 -85 108 -47 52 -85 99 -85 103 0 4 -18 22 -40 41 -22 19 -40 40 -40 46
0 6 -15 25 -32 43 -18 17 -53 57 -78 88 -50 62 -66 66 -149 40z"/>
<path d="M3630 3507 c-14 -7 -77 -28 -140 -46 -63 -19 -119 -37 -125 -41 -5
-4 -39 -15 -75 -25 -36 -9 -110 -32 -165 -50 -97 -32 -195 -64 -548 -176 -136
-43 -167 -57 -165 -70 3 -16 157 -190 284 -320 30 -30 54 -59 54 -63 0 -14
148 -156 162 -156 7 0 25 6 39 14 15 7 76 28 135 46 60 18 114 35 119 39 6 5
57 23 115 41 58 18 111 37 117 42 7 6 20 7 29 4 28 -11 15 -149 -21 -220 -34
-67 -107 -151 -175 -201 -28 -20 -50 -41 -50 -47 0 -10 154 -182 208 -232 17
-16 32 -35 32 -41 0 -6 19 -29 43 -51 23 -21 98 -101 166 -177 71 -78 132
-137 142 -137 22 0 135 76 212 144 147 128 266 324 300 494 21 103 22 322 3
425 -14 72 -76 221 -115 275 -10 15 -29 45 -41 66 -72 129 -319 370 -447 434
-23 12 -44 26 -48 32 -8 13 -15 13 -45 -3z"/>
</g>
</svg>
