<?xml version="1.0" standalone="no"?>
<!DOCTYPE svg PUBLIC "-//W3C//DTD SVG 20010904//EN"
 "http://www.w3.org/TR/2001/REC-SVG-20010904/DTD/svg10.dtd">
<svg version="1.0" xmlns="http://www.w3.org/2000/svg"
 width="500.000000pt" height="500.000000pt" viewBox="0 0 500.000000 500.000000"
 preserveAspectRatio="xMidYMid meet">
<metadata>
Created by potrace 1.15, written by Peter Selinger 2001-2017
</metadata>
<g transform="translate(0.000000,500.000000) scale(0.100000,-0.100000)"
fill="#000000" stroke="none">
<path d="M1865 4240 c-49 -39 -51 -40 -137 -40 -51 0 -88 -4 -88 -10 0 -14
-184 -150 -203 -150 -10 0 -17 -6 -17 -13 0 -8 -19 -27 -42 -44 -24 -17 -53
-39 -65 -49 -11 -11 -31 -26 -43 -34 -12 -8 -30 -22 -40 -30 -10 -8 -28 -22
-40 -30 -12 -8 -28 -20 -34 -25 -6 -6 -24 -21 -41 -33 -141 -106 -143 -108
-166 -192 -11 -41 -29 -105 -40 -142 l-20 -68 -90 0 -90 0 -142 -107 c-78 -59
-148 -113 -155 -120 -7 -7 -24 -16 -37 -19 -17 -4 -24 -13 -23 -32 0 -15 -9
-61 -20 -102 -104 -386 -132 -494 -132 -511 0 -18 9 -19 210 -19 116 0 210 -3
210 -8 0 -4 -9 -39 -20 -77 -32 -114 -44 -105 136 -105 l157 0 -7 -27 c-3 -16
-15 -62 -26 -103 -12 -41 -30 -106 -40 -145 -10 -38 -30 -113 -44 -167 -42
-156 -84 -138 330 -138 281 0 355 -3 351 -13 -6 -17 -53 -186 -61 -219 l-6
-28 -140 0 c-76 0 -141 -3 -143 -8 -3 -4 -17 -50 -31 -102 -60 -226 -109 -410
-127 -475 -32 -113 -34 -135 -16 -135 9 0 91 57 182 128 393 300 449 342 456
340 4 -2 40 -46 80 -98 40 -52 104 -134 142 -182 l69 -88 475 0 c335 0 481 3
496 11 22 12 23 13 77 59 19 16 38 30 41 30 10 0 56 46 61 60 3 11 26 13 99
11 l94 -2 100 78 c55 43 205 158 332 257 217 166 234 181 244 220 6 22 15 58
21 79 l11 37 68 0 c37 0 69 4 71 8 2 4 20 21 41 36 20 16 37 34 37 41 0 7 7
15 15 19 8 3 15 1 15 -4 0 -6 34 -10 78 -10 75 0 78 1 132 42 148 111 227 173
253 194 29 24 32 32 132 409 20 77 43 162 51 189 8 27 14 56 14 63 0 10 -80
13 -422 14 -233 1 -413 4 -400 6 12 2 22 10 22 16 0 6 11 20 25 32 18 15 32
49 56 140 17 66 44 167 60 225 15 58 37 140 48 182 34 124 38 118 -79 118
l-100 0 7 45 6 45 -318 2 -318 3 91 70 c51 38 92 74 92 80 0 6 50 9 139 7
l139 -3 10 43 c10 43 42 166 80 308 40 146 72 270 72 275 0 17 -40 -6 -145
-86 -66 -50 -131 -100 -144 -111 -19 -16 -23 -17 -18 -4 10 25 57 204 57 216
0 7 -314 10 -932 9 l-933 0 -50 -39z m1445 -197 c0 -5 -16 -73 -37 -152 l-38
-144 -115 -88 -115 -89 -458 0 -458 0 -108 -82 -109 -83 -37 -135 c-20 -74
-48 -178 -62 -230 -14 -52 -33 -124 -43 -160 -10 -36 -35 -128 -55 -205 -20
-77 -45 -169 -55 -205 -10 -36 -35 -128 -55 -205 -20 -77 -45 -167 -54 -200
l-17 -60 -234 3 c-129 2 -237 5 -239 8 -2 2 8 48 23 102 15 53 31 124 36 157
4 33 34 154 64 269 31 114 56 210 56 212 0 2 -105 4 -232 5 -128 1 -269 4
-314 7 l-81 7 25 90 c57 211 38 180 169 280 l118 90 224 5 223 5 33 120 c17
66 40 150 49 187 l18 67 111 84 c62 47 189 144 282 216 l170 131 658 0 c361 0
657 -3 657 -7z m520 -815 c0 -11 -46 -188 -69 -268 -5 -16 -50 -58 -120 -112
l-113 -88 -499 0 c-274 0 -500 -3 -502 -7 -3 -5 -19 -60 -35 -123 -50 -189
-109 -408 -184 -685 -56 -207 -56 -197 -18 -245 l32 -40 255 0 255 0 111 86
c97 74 113 91 124 127 25 82 36 77 -172 77 -118 0 -185 4 -185 10 0 6 22 92
49 193 28 100 55 201 61 225 l11 42 759 0 c418 0 760 -2 760 -5 0 -8 -48 -191
-65 -247 -15 -50 -23 -58 -125 -135 l-109 -83 -235 0 -235 0 -14 -52 c-8 -29
-27 -100 -42 -158 -15 -58 -31 -111 -34 -117 -4 -7 -133 -110 -286 -228 l-280
-215 -427 0 -427 0 -167 216 -167 216 22 81 c12 45 21 93 21 107 0 14 9 59 21
100 22 82 119 442 149 555 10 39 53 198 95 355 43 157 80 297 84 312 4 17 27
43 66 72 l60 45 788 1 c623 0 787 -3 787 -12z"/>
</g>
</svg>
