<?xml version="1.0" standalone="no"?>
<!DOCTYPE svg PUBLIC "-//W3C//DTD SVG 20010904//EN"
 "http://www.w3.org/TR/2001/REC-SVG-20010904/DTD/svg10.dtd">
<svg version="1.0" xmlns="http://www.w3.org/2000/svg"
 width="500.000000pt" height="500.000000pt" viewBox="0 0 500.000000 500.000000"
 preserveAspectRatio="xMidYMid meet">
<metadata>
Created by potrace 1.15, written by Peter Selinger 2001-2017
</metadata>
<g transform="translate(0.000000,500.000000) scale(0.100000,-0.100000)"
fill="#000000" stroke="none">
<path d="M1780 3923 c-634 -104 -1120 -555 -1344 -1248 -75 -230 -121 -504
-133 -786 l-6 -159 352 0 c331 0 352 -1 347 -17 -20 -68 -56 -441 -56 -585 l0
-68 1880 0 1880 0 0 640 0 640 -312 -2 -313 -3 -3 -392 -2 -393 -1240 0 -1240
0 0 38 c0 20 3 61 6 90 l7 52 378 0 c415 0 573 10 754 45 401 80 721 278 932
578 65 92 167 285 199 374 l18 53 405 2 406 3 3 243 2 242 -346 0 -346 0 6 43
c17 119 36 375 36 489 l0 128 -1122 -1 c-618 -1 -1134 -4 -1148 -6z m1630
-545 c0 -46 -4 -88 -8 -95 -5 -8 -134 -13 -482 -16 -509 -5 -533 -7 -725 -62
-264 -76 -474 -200 -665 -394 -149 -150 -272 -329 -356 -517 l-37 -84 -100 0
-100 0 7 103 c34 531 402 985 906 1118 91 24 169 26 858 28 l702 1 0 -82z
m-221 -658 c-54 -77 -170 -194 -257 -259 -164 -123 -378 -211 -587 -241 -83
-11 -555 -14 -555 -2 0 17 134 174 198 232 130 118 314 227 473 279 137 45
181 49 482 50 l288 1 -42 -60z"/>
</g>
</svg>
